name analog
datacolumns 19
datarows 18
range 0.1705 0.179
endheader
time	ground_force_vx	ground_force_vy	ground_force_vz	ground_force_px	ground_force_py	ground_force_pz	l_ground_force_vx	l_ground_force_vy	l_ground_force_vz	l_ground_force_px	l_ground_force_py	l_ground_force_pz	ground_torque_x	ground_torque_y	ground_torque_z	l_ground_torque_x	l_ground_torque_y	l_ground_torque_z
0.1705	-0.0	-0.0	-0.0	2.1995346546173096	15.305670738220217	-321.295654296875	5.674386978149414	-18.40138053894043	-368.1140747070313	-0.0	-0.0	-0.0	-0.0	-0.0	-0.0	86616.7265625	9097.0361328125	-2631.54150390625
0.171	-0.0	-0.0	-0.0	2.048980951309204	15.00457000732422	-323.9535217285156	5.298060894012451	-18.340476989746094	-367.5363464355469	-0.0	-0.0	-0.0	-0.0	-0.0	-0.0	86439.8984375	9246.576171875	-2700.318115234375
0.1715	-0.0	-0.0	-0.0	2.233043670654297	14.859697341918944	-321.28338623046875	5.67457914352417	-17.874284744262695	-367.3189697265625	-0.0	-0.0	-0.0	-0.0	-0.0	-0.0	86523.21875	9016.5693359375	-2787.950439453125
0.17200000000000001	-0.0	-0.0	-0.0	2.4060158729553223	14.737114906311035	-321.5149841308594	5.738496780395508	-17.990041732788086	-368.37701416015625	-0.0	-0.0	-0.0	-0.0	-0.0	-0.0	86571.546875	9176.7216796875	-2788.907958984375
0.17250000000000001	-0.0	-0.0	-0.0	2.9745352268218994	14.584272384643556	-321.6056213378906	5.441823482513428	-17.813322067260742	-367.4062805175781	-0.0	-0.0	-0.0	-0.0	-0.0	-0.0	86472.4453125	9101.8486328125	-2839.113037109375
0.17300000000000001	-0.0	-0.0	-0.0	3.4205610752105717	14.349994659423828	-323.1400756835937	5.472236156463623	-17.722352981567383	-368.00579833984375	-0.0	-0.0	-0.0	-0.0	-0.0	-0.0	86865.9453125	9027.224609375	-2751.8017578125
0.17350000000000002	-0.0	-0.0	-0.0	3.777365446090698	14.23272705078125	-322.341796875	5.910726547241211	-17.338834762573242	-368.7041015625	-0.0	-0.0	-0.0	-0.0	-0.0	-0.0	86803.703125	9279.33203125	-2839.4501953125
0.17400000000000002	-0.0	-0.0	-0.0	3.688117265701294	14.197699546813965	-323.4099426269531	5.436958312988281	-17.634105682373047	-370.1007080078125	-0.0	-0.0	-0.0	-0.0	-0.0	-0.0	86753.1171875	9140.392578125	-2974.7802734375
0.17450000000000002	-0.0	-0.0	-0.0	3.7229197025299072	14.828261375427246	-324.34844970703125	4.879093170166016	-17.366859436035156	-371.0105590820313	-0.0	-0.0	-0.0	-0.0	-0.0	-0.0	87006.484375	9285.794921875	-3057.111083984375
0.17500000000000002	-0.0	-0.0	-0.0	3.777267456054688	14.823979377746582	-326.5710144042969	4.433337211608887	-17.048276901245117	-370.6970825195313	-0.0	-0.0	-0.0	-0.0	-0.0	-0.0	86894.96875	9434.041015625	-3255.560546875
0.17550000000000002	-0.0	-0.0	-0.0	3.8380064964294434	14.710421562194824	-327.1726989746094	4.227850914001465	-16.901657104492188	-369.1641540527344	-0.0	-0.0	-0.0	-0.0	-0.0	-0.0	87040.4140625	9690.5380859375	-3403.228515625
0.176	-0.0	-0.0	-0.0	3.124220609664917	14.590761184692385	-325.4062194824219	3.4597206115722656	-16.83934211730957	-371.2515258789063	-0.0	-0.0	-0.0	-0.0	-0.0	-0.0	86951.4609375	9689.6806640625	-3463.7294921875
0.1765	-0.0	-0.0	-0.0	3.3007888793945312	14.856240272521973	-328.10418701171875	3.578634262084961	-16.751049041748047	-369.8704528808594	-0.0	-0.0	-0.0	-0.0	-0.0	-0.0	86640.8125	9929.859375	-3759.57763671875
0.177	-0.0	-0.0	-0.0	3.361361503601074	14.916683197021484	-328.9369506835937	3.2539188861846924	-16.516155242919922	-370.3311462402344	-0.0	-0.0	-0.0	-0.0	-0.0	-0.0	86403.46875	10102.7578125	-3787.59716796875
0.1775	-0.0	-0.0	-0.0	3.6545603275299072	14.822800636291504	-328.4512634277344	3.046294450759888	-16.486160278320312	-369.4089965820313	-0.0	-0.0	-0.0	-0.0	-0.0	-0.0	86512.1015625	10344.732421875	-3957.97216796875
0.178	-0.0	-0.0	-0.0	3.3597774505615234	14.884777069091797	-329.64227294921875	2.5710196495056152	-16.574506759643555	-371.0359497070313	-0.0	-0.0	-0.0	-0.0	-0.0	-0.0	86495.765625	10572.37109375	-4205.14208984375
0.1785	-0.0	-0.0	-0.0	4.165394306182861	14.823122024536133	-327.7563171386719	2.1891865730285645	-16.547561645507812	-369.3966064453125	-0.0	-0.0	-0.0	-0.0	-0.0	-0.0	86316.3828125	10744.052734375	-4363.75537109375
0.179	-0.0	-0.0	-0.0	3.56842041015625	14.558375358581545	-329.1636962890625	1.448030710220337	-16.722692489624023	-369.9879455566406	-0.0	-0.0	-0.0	-0.0	-0.0	-0.0	86084.875	10626.2548828125	-4492.98583984375
